<?xml version="1.0" encoding="UTF-8"?>
<svg version="1.1" xmlns="http://www.w3.org/2000/svg" width="512" height="512">
<path d="M0 0 C0.84736221 -0.0065712 1.69472443 -0.0131424 2.56776428 -0.01991272 C5.38021936 -0.03966931 8.19262093 -0.05131498 11.00512695 -0.0612793 C11.96542124 -0.06535482 12.92571552 -0.06943035 13.91510963 -0.07362938 C19.00004487 -0.09450249 24.08495304 -0.10879752 29.16992188 -0.11816406 C34.41790214 -0.12921714 39.66545706 -0.16360083 44.91328716 -0.20333576 C48.95140866 -0.22950949 52.98942908 -0.23785669 57.02762794 -0.24144554 C58.96167681 -0.24631135 60.89572117 -0.25792519 62.82968712 -0.27648354 C65.54174598 -0.3008858 68.25270823 -0.29990777 70.96484375 -0.29296875 C71.75939972 -0.30577881 72.55395569 -0.31858887 73.37258911 -0.33178711 C78.97877436 -0.27968663 82.25269262 0.83677776 86.8059082 4.17700195 C91.49279749 9.25418782 91.37879345 13.93186624 91.32348633 20.48999023 C91.33400024 22.02783928 91.33400024 22.02783928 91.34472656 23.59675598 C91.36230596 26.98055252 91.35067816 30.36350961 91.3371582 33.74731445 C91.33985436 36.10895955 91.34373781 38.47060357 91.34875488 40.83224487 C91.35465094 45.78353436 91.34608776 50.73453512 91.32739258 55.68579102 C91.30467839 62.00712839 91.31767818 68.32778356 91.34168243 74.64909554 C91.35620137 79.52899219 91.3515052 84.40872974 91.34117126 89.28863144 C91.33851691 91.61764483 91.3417279 93.94667301 91.35108948 96.2756691 C91.40963647 114.94598781 89.83893883 129.43311353 76.6809082 143.86450195 C70.58044861 149.57006573 53.75054174 162.17700195 44.8059082 162.17700195 C44.81479065 163.0685498 44.8236731 163.96009766 44.83282471 164.87866211 C44.91353481 173.35012358 44.97415598 181.82145282 45.01315689 190.29321289 C45.03388287 194.64689766 45.06191996 199.00026031 45.10766602 203.35375977 C45.15166697 207.56837044 45.17515743 211.78267462 45.18541718 215.99749756 C45.19271266 217.59198826 45.2069533 219.18646542 45.22882843 220.78082275 C45.49573487 241.07244013 40.81770362 258.41177851 26.6262207 273.4934082 C14.08687537 285.64218377 -1.36348106 290.67438346 -18.56437683 290.5377655 C-19.76208924 290.54032878 -20.95980165 290.54289205 -22.19380838 290.545533 C-25.48694828 290.549593 -28.77972641 290.54032125 -32.07282364 290.52519882 C-35.6357167 290.51216352 -39.19859491 290.51663317 -42.76150513 290.51890564 C-48.9240887 290.52047367 -55.08657649 290.51111389 -61.24913597 290.49419212 C-70.15899051 290.46974257 -79.06879906 290.46199078 -87.97868351 290.45822815 C-102.43666157 290.45167298 -116.89458866 290.43173725 -131.35253906 290.40332031 C-145.39159898 290.3757555 -159.43064502 290.35453379 -173.46972656 290.34179688 C-174.33605232 290.3410087 -175.20237807 290.34022053 -176.09495612 290.33940848 C-180.44134379 290.33549318 -184.78773156 290.3317021 -189.13411939 290.32797277 C-225.15414617 290.29690598 -261.174115 290.24409572 -297.1940918 290.17700195 C-297.23320677 286.10025869 -297.26130247 282.02359064 -297.27992249 277.94670105 C-297.28769864 276.56466261 -297.29829837 275.18263666 -297.31196594 273.80064392 C-297.65596202 238.07928229 -282.63435774 206.68337504 -257.8815918 181.42700195 C-244.52226766 168.21751775 -225.00291254 153.77377645 -206.1940918 150.17700195 C-202.28447642 150.61140366 -198.98548855 152.02531912 -195.3815918 153.55200195 C-174.2606434 161.76702698 -151.75865369 161.07213087 -130.96362305 152.26293945 C-123.58396222 149.369363 -119.3897886 151.28318424 -112.3112793 154.3059082 C-101.49634985 159.14012537 -91.46757324 164.75564441 -82.1940918 172.17700195 C-81.63834473 172.62060059 -81.08259766 173.06419922 -80.51000977 173.52124023 C-72.40208643 180.05317628 -65.4478531 186.79404176 -59.1940918 195.17700195 C-58.53151367 196.01360352 -57.86893555 196.85020508 -57.1862793 197.7121582 C-40.86975476 218.9236401 -31.18825808 246.38242136 -32.1940918 273.17700195 C-28.42219332 273.12434336 -24.65245036 273.02909701 -20.8815918 272.92700195 C-19.82907227 272.91282227 -18.77655273 272.89864258 -17.69213867 272.8840332 C-5.79729913 272.51803814 4.47140361 268.75739886 13.4309082 260.86450195 C22.58876015 250.50166949 26.83951629 240.8689148 27.01123047 226.88647461 C27.02113007 226.18334137 27.03102966 225.48020813 27.04122925 224.75576782 C27.07260693 222.45089997 27.09750689 220.14601157 27.12231445 217.84106445 C27.14290453 216.23537689 27.16390152 214.6296945 27.18528748 213.02401733 C27.2402962 208.81223761 27.28979833 204.60041069 27.33813477 200.3885498 C27.38850527 196.08491857 27.44410991 191.78135527 27.49926758 187.4777832 C27.60658958 179.04424701 27.70809141 170.61065372 27.8059082 162.17700195 C26.38819122 161.71300743 26.38819122 161.71300743 24.9418335 161.23963928 C8.64614036 155.71769274 -6.05678212 144.54884724 -14.3815918 129.42700195 C-20.0964151 116.70297656 -19.63625766 103.78486687 -19.5925293 90.12231445 C-19.59455323 87.88939316 -19.59746731 85.65647251 -19.60122681 83.42355347 C-19.60562962 78.76545866 -19.59928144 74.10753741 -19.58520508 69.44946289 C-19.56805466 63.48428215 -19.57800446 57.51950467 -19.59592247 51.55433846 C-19.60676461 46.95265666 -19.60331298 42.35107051 -19.59553909 37.74938583 C-19.59354138 35.54938585 -19.59598125 33.34937712 -19.60297775 31.14938736 C-19.61060577 28.07909348 -19.59897133 25.00945415 -19.58227539 21.93920898 C-19.58834808 21.03520859 -19.59442078 20.13120819 -19.60067749 19.19981384 C-19.54239538 13.40750864 -18.78005011 8.94720157 -14.65893555 4.5324707 C-9.42930199 0.53333916 -6.46673023 0.02160918 0 0 Z M29.8059082 43.17700195 C28.52729206 45.73423425 28.69254211 47.54437298 28.70825195 50.40356445 C28.71308594 51.95043945 28.71308594 51.95043945 28.71801758 53.52856445 C28.72639648 54.60879883 28.73477539 55.6890332 28.7434082 56.80200195 C28.74791992 57.8899707 28.75243164 58.97793945 28.75708008 60.09887695 C28.76889044 62.79163984 28.78536042 65.48429384 28.8059082 68.17700195 C27.79222168 68.14558105 27.79222168 68.14558105 26.75805664 68.11352539 C23.69082567 68.03028553 20.62383238 67.97831729 17.5559082 67.92700195 C15.96069336 67.87672852 15.96069336 67.87672852 14.33325195 67.82543945 C12.79604492 67.80610352 12.79604492 67.80610352 11.2277832 67.78637695 C10.28515625 67.76542969 9.3425293 67.74448242 8.37133789 67.72290039 C5.01625833 68.31677629 3.85819762 69.50510867 1.8059082 72.17700195 C1.19688592 76.88934671 1.19688592 76.88934671 3.1184082 81.05200195 C6.27661692 83.15747443 9.01553114 83.29694363 12.69262695 83.2746582 C13.63041992 83.27143555 14.56821289 83.26821289 15.53442383 83.26489258 C16.51088867 83.25651367 17.48735352 83.24813477 18.4934082 83.23950195 C19.48147461 83.23499023 20.46954102 83.23047852 21.48754883 83.22583008 C23.92706294 83.21404499 26.36645509 83.19759207 28.8059082 83.17700195 C28.77972412 83.81726318 28.75354004 84.45752441 28.7265625 85.1171875 C28.62229539 88.03270698 28.55749068 90.94783393 28.4934082 93.86450195 C28.45151367 94.8719043 28.40961914 95.87930664 28.36645508 96.91723633 C28.23889518 103.06932705 28.23889518 103.06932705 31.13012695 108.3840332 C33.70176069 110.46692786 33.70176069 110.46692786 36.9309082 110.17700195 C40.59946739 108.90098137 42.09030043 107.60821751 43.8059082 104.17700195 C43.8899135 102.58252731 43.91318287 100.98459651 43.90356445 99.38793945 C43.9003418 98.44692383 43.89711914 97.5059082 43.89379883 96.53637695 C43.88541992 95.5515332 43.87704102 94.56668945 43.8684082 93.55200195 C43.86389648 92.55942383 43.85938477 91.5668457 43.85473633 90.54418945 C43.84292965 88.08840035 43.82646221 85.63273091 43.8059082 83.17700195 C44.42111328 83.18747559 45.03631836 83.19794922 45.67016602 83.20874023 C48.46537163 83.2503889 51.26051186 83.27635612 54.0559082 83.30200195 C55.02399414 83.31875977 55.99208008 83.33551758 56.98950195 83.3527832 C58.39135742 83.36245117 58.39135742 83.36245117 59.8215332 83.37231445 C61.10979004 83.3880249 61.10979004 83.3880249 62.42407227 83.40405273 C65.05323591 83.1534252 66.59566932 82.60943195 68.8059082 81.17700195 C71.16209363 78.29100808 71.16209363 78.29100808 70.6184082 74.67700195 C69.70566068 70.68922785 69.70566068 70.68922785 66.8059082 68.17700195 C64.2922896 67.76371639 64.2922896 67.76371639 61.48168945 67.8840332 C60.45366211 67.89370117 59.42563477 67.90336914 58.36645508 67.91333008 C57.29459961 67.9384668 56.22274414 67.96360352 55.1184082 67.98950195 C53.49322266 68.00980469 53.49322266 68.00980469 51.83520508 68.03051758 C49.15827416 68.06589552 46.48233983 68.11526007 43.8059082 68.17700195 C43.82685547 67.53674072 43.84780273 66.89647949 43.86938477 66.23681641 C43.95280105 63.3212062 44.00464789 60.40584743 44.0559082 57.48950195 C44.08942383 56.48209961 44.12293945 55.47469727 44.1574707 54.43676758 C44.26378801 48.44773336 44.26378801 48.44773336 41.94262695 43.0324707 C37.46093682 39.14069225 34.40766188 39.7256867 29.8059082 43.17700195 Z " fill="#7D6E6E" transform="translate(359.194091796875,110.822998046875)"/>
<path d="M0 0 C0.86109375 0.72703125 1.7221875 1.4540625 2.609375 2.203125 C3.26421875 2.74453125 3.9190625 3.2859375 4.59375 3.84375 C17.50166064 15.56744865 24.76800717 33.63606867 25.828125 50.73046875 C26.29752534 69.6825075 20.62205541 87.67762528 8.1015625 102.08984375 C-6.1273934 116.94714386 -24.25358955 125.08625783 -44.890625 125.578125 C-65.40810793 125.08910727 -83.65135434 117.01021647 -97.81640625 102.21875 C-109.83028411 88.14482935 -116.09374804 70.69936936 -115.63671875 52.203125 C-114.21831799 34.91214425 -108.68426133 20.57927583 -97.390625 7.203125 C-96.84921875 6.54828125 -96.3078125 5.8934375 -95.75 5.21875 C-71.19495484 -21.81660275 -27.44273721 -21.92514983 0 0 Z " fill="#7D6E6E" transform="translate(239.390625,130.796875)"/>
</svg>
