<?xml version="1.0" encoding="UTF-8"?>
<svg version="1.1" xmlns="http://www.w3.org/2000/svg" width="512" height="512">
<path d="M0 0 C0.78636841 0.00060425 1.57273682 0.0012085 2.38293457 0.00183105 C38.24804268 0.07640225 70.89832541 6.13247904 97.4140625 32.19140625 C98.40323014 33.18793662 99.39028942 34.1865652 100.375 35.1875 C101.26960937 36.08339844 102.16421875 36.97929687 103.0859375 37.90234375 C122.28168104 58.0135766 133.04408315 85.45021673 133.8125 113.125 C133.84706299 113.84751953 133.88162598 114.57003906 133.91723633 115.31445312 C133.94793423 119.23278806 133.52045867 120.99962628 131.09765625 124.12890625 C127.41068177 126.91661866 124.570279 127.31136094 120.02925396 127.31892776 C119.16172455 127.32276891 118.29419515 127.32661005 117.40037698 127.3305676 C116.451848 127.32970112 115.50331903 127.32883463 114.52604675 127.32794189 C113.51484703 127.33091302 112.5036473 127.33388414 111.46180516 127.3369453 C108.06331426 127.34563761 104.66485857 127.34714099 101.26635742 127.34863281 C98.83380559 127.35326057 96.40125448 127.35828517 93.96870422 127.36367798 C87.35298042 127.3768072 80.73726394 127.38328454 74.12153029 127.38768864 C69.98999322 127.39045235 65.85845848 127.39468992 61.72692299 127.39919281 C50.28581864 127.41138393 38.84471616 127.42168381 27.40360546 127.4250679 C26.67153929 127.42528747 25.93947312 127.42550703 25.18522312 127.42573325 C24.08451339 127.42606067 24.08451339 127.42606067 22.9615671 127.4263947 C21.47462221 127.42683817 19.98767731 127.42728473 18.50073242 127.42773438 C17.394371 127.42806652 17.394371 127.42806652 16.26565883 127.42840537 C4.3140065 127.4323535 -7.63758487 127.44980866 -19.58921365 127.4730939 C-31.8624412 127.49681255 -44.13563816 127.50926997 -56.408889 127.51043582 C-63.29881371 127.51135225 -70.18865897 127.51709654 -77.07856178 127.53525543 C-83.55869283 127.55227431 -90.0387133 127.55390519 -96.51886177 127.54511642 C-98.89767612 127.54434457 -101.2764985 127.5487082 -103.65529251 127.55857468 C-106.90207424 127.57125192 -110.14831803 127.56543997 -113.39509583 127.55499268 C-114.33693263 127.56304908 -115.27876944 127.57110548 -116.24914676 127.57940602 C-121.79381558 127.53766456 -125.74793421 126.90653349 -130.625 124.1875 C-135.78592292 116.44611562 -132.7003196 102.81086907 -131 94.125 C-124.81578741 64.82988594 -108.36044427 38.20574375 -83.5234375 21.0546875 C-70.50048662 12.66523936 -57.32925109 6.19184361 -42.125 2.875 C-41.4028833 2.71547852 -40.6807666 2.55595703 -39.93676758 2.39160156 C-26.85460361 -0.21763136 -13.29057143 -0.01898954 0 0 Z " fill="#000000" transform="translate(255.625,280.8125)"/>
<path d="M0 0 C0.80695313 0.71542969 1.61390625 1.43085937 2.4453125 2.16796875 C17.18579 15.98434904 26.24868952 34.72345321 27.3203125 54.9609375 C28.01838474 76.76412764 22.50728621 96.33575517 8 113 C7.55527344 113.58652344 7.11054688 114.17304688 6.65234375 114.77734375 C-5.13328724 129.93029788 -24.67469178 137.91366913 -43.1875 140.75 C-67.79791382 142.36379763 -88.58362725 136.15339666 -107.6875 120.25 C-122.83763411 106.13904476 -132.14704038 86.46600346 -133.375 65.85546875 C-134.15234584 43.76184236 -128.16581534 23.48336307 -113 7 C-112.25105469 6.15953125 -111.50210938 5.3190625 -110.73046875 4.453125 C-96.87925072 -10.31554043 -77.23960951 -18.70398355 -57.12109375 -19.93359375 C-36.35153443 -20.37549927 -15.55130068 -14.17222308 0 0 Z " fill="#000000" transform="translate(309,124)"/>
</svg>
